<svg width="423" height="296" viewBox="0 0 423 296" fill="none" xmlns="http://www.w3.org/2000/svg">
<mask id="path-1-inside-1" fill="white">
<path fill-rule="evenodd" clip-rule="evenodd" d="M341.573 171.49C357.879 161.781 368.5 145.92 368.5 128C368.5 98.4528 339.622 74.5 304 74.5C291.839 74.5 280.464 77.2916 270.756 82.1443C260.294 58.9687 233.68 42.5 202.5 42.5C171.79 42.5 145.508 58.4764 134.728 81.1018C129.694 80.0555 124.425 79.5 119 79.5C83.3776 79.5 54.5 103.453 54.5 133C54.5 154.944 70.4282 173.803 93.218 182.055C90.8107 187.664 89.5 193.705 89.5 200C89.5 229.547 118.378 253.5 154 253.5C176.631 253.5 196.539 243.833 208.051 229.205C222.083 244.046 243.281 253.5 267 253.5C309.25 253.5 343.5 223.503 343.5 186.5C343.5 181.34 342.834 176.316 341.573 171.49Z"/>
</mask>
<path d="M341.573 171.49L341.061 170.631L340.415 171.016L340.605 171.743L341.573 171.49ZM270.756 82.1443L269.844 82.5557L270.272 83.5039L271.203 83.0387L270.756 82.1443ZM134.728 81.1018L134.524 82.0809L135.293 82.2406L135.63 81.5319L134.728 81.1018ZM93.218 182.055L94.1369 182.449L94.5549 181.475L93.5585 181.115L93.218 182.055ZM208.051 229.205L208.777 228.518L207.981 227.676L207.265 228.587L208.051 229.205ZM342.085 172.35C358.628 162.499 369.5 146.341 369.5 128H367.5C367.5 145.498 357.129 161.064 341.061 170.631L342.085 172.35ZM369.5 128C369.5 97.7336 339.992 73.5 304 73.5V75.5C339.253 75.5 367.5 99.1719 367.5 128H369.5ZM304 73.5C291.687 73.5 280.158 76.3265 270.309 81.2498L271.203 83.0387C280.77 78.2567 291.991 75.5 304 75.5V73.5ZM271.667 81.7328C261.019 58.1439 234.009 41.5 202.5 41.5V43.5C233.351 43.5 259.569 59.7934 269.844 82.5557L271.667 81.7328ZM202.5 41.5C171.464 41.5 144.796 57.6466 133.825 80.6716L135.63 81.5319C146.221 59.3061 172.115 43.5 202.5 43.5V41.5ZM134.931 80.1227C129.83 79.0625 124.493 78.5 119 78.5V80.5C124.357 80.5 129.557 81.0486 134.524 82.0809L134.931 80.1227ZM119 78.5C83.0085 78.5 53.5 102.734 53.5 133H55.5C55.5 104.172 83.7468 80.5 119 80.5V78.5ZM53.5 133C53.5 155.467 69.7974 174.638 92.8775 182.995L93.5585 181.115C71.059 172.967 55.5 154.421 55.5 133H53.5ZM92.299 181.66C89.8404 187.39 88.5 193.564 88.5 200H90.5C90.5 193.846 91.7809 187.939 94.1369 182.449L92.299 181.66ZM88.5 200C88.5 230.266 118.009 254.5 154 254.5V252.5C118.747 252.5 90.5 228.828 90.5 200H88.5ZM154 254.5C176.905 254.5 197.116 244.716 208.837 229.823L207.265 228.587C195.963 242.949 176.357 252.5 154 252.5V254.5ZM267 252.5C243.544 252.5 222.612 243.15 208.777 228.518L207.324 229.892C221.553 244.941 243.018 254.5 267 254.5V252.5ZM342.5 186.5C342.5 222.83 308.826 252.5 267 252.5V254.5C309.673 254.5 344.5 224.176 344.5 186.5H342.5ZM340.605 171.743C341.845 176.487 342.5 181.426 342.5 186.5H344.5C344.5 181.253 343.823 176.144 342.54 171.238L340.605 171.743Z" fill="black" mask="url(#path-1-inside-1)"/>
<path fill-rule="evenodd" clip-rule="evenodd" d="M170.81 146.206C181.429 149.126 194.232 150.831 208.014 150.831C221.533 150.831 234.11 149.191 244.608 146.372V145.336C234.16 148.171 221.576 149.831 208.014 149.831C194.187 149.831 181.377 148.105 170.81 145.169V146.206Z" fill="black"/>
<path d="M189.644 111.761C189.644 115.17 188.592 118.237 186.915 120.442C185.237 122.646 182.957 123.966 180.477 123.966C177.997 123.966 175.716 122.646 174.039 120.442C172.362 118.237 171.31 115.17 171.31 111.761C171.31 108.352 172.362 105.284 174.039 103.079C175.716 100.875 177.997 99.5553 180.477 99.5553C182.957 99.5553 185.237 100.875 186.915 103.079C188.592 105.284 189.644 108.352 189.644 111.761Z" stroke="black"/>
<path d="M239 111.761C239 115.17 237.948 118.237 236.271 120.442C234.594 122.646 232.313 123.966 229.833 123.966C227.353 123.966 225.072 122.646 223.395 120.442C221.718 118.237 220.666 115.17 220.666 111.761C220.666 108.352 221.718 105.284 223.395 103.079C225.072 100.875 227.353 99.5553 229.833 99.5553C232.313 99.5553 234.594 100.875 236.271 103.079C237.948 105.284 239 108.352 239 111.761Z" stroke="black"/>
</svg>
